0
SECTION
2
HEADER
9
$INSUNITS
70
4
9
$ACADVER
1
AC1014
9
$HANDSEED
5
FFFF
0
ENDSEC
0
SECTION
2
TABLES
0
TABLE
2
VPORT
5
8
100
AcDbSymbolTable
0
ENDTAB
0
TABLE
2
LTYPE
5
5
100
AcDbSymbolTable
0
LTYPE
5
14
100
AcDbSymbolTableRecord
100
AcDbLinetypeTableRecord
2
BYBLOCK
70
0
0
LTYPE
5
15
100
AcDbSymbolTableRecord
100
AcDbLinetypeTableRecord
2
BYLAYER
70
0
0
ENDTAB
0
TABLE
2
LAYER
5
2
100
AcDbSymbolTable
70
2
0
LAYER
5
50
100
AcDbSymbolTableRecord
100
AcDbLayerTableRecord
2
0
70
0
6
CONTINUOUS
0
ENDTAB
0
TABLE
2
STYLE
5
3
100
AcDbSymbolTable
70
1
0
STYLE
5
11
100
AcDbSymbolTableRecord
100
AcDbTextStyleTableRecord
2
STANDARD
70
0
0
ENDTAB
0
TABLE
2
VIEW
5
6
100
AcDbSymbolTable
70
0
0
ENDTAB
0
TABLE
2
UCS
5
7
100
AcDbSymbolTable
70
0
0
ENDTAB
0
TABLE
2
APPID
5
9
100
AcDbSymbolTable
70
2
0
APPID
5
12
100
AcDbSymbolTableRecord
100
AcDbRegAppTableRecord
2
ACAD
70
0
0
ENDTAB
0
TABLE
2
DIMSTYLE
5
A
100
AcDbSymbolTable
70
1
0
ENDTAB
0
TABLE
2
BLOCK_RECORD
5
1
100
AcDbSymbolTable
70
1
0
BLOCK_RECORD
5
1F
100
AcDbSymbolTableRecord
100
AcDbBlockTableRecord
2
*MODEL_SPACE
0
BLOCK_RECORD
5
1B
100
AcDbSymbolTableRecord
100
AcDbBlockTableRecord
2
*PAPER_SPACE
0
ENDTAB
0
ENDSEC
0
SECTION
2
BLOCKS
0
BLOCK
5
20
100
AcDbEntity
100
AcDbBlockBegin
2
*MODEL_SPACE
0
ENDBLK
5
21
100
AcDbEntity
100
AcDbBlockEnd
0
BLOCK
5
1C
100
AcDbEntity
100
AcDbBlockBegin
2
*PAPER_SPACE
0
ENDBLK
5
1D
100
AcDbEntity
100
AcDbBlockEnd
0
ENDSEC
0
SECTION
2
ENTITIES
0
LWPOLYLINE
5
100
100
AcDbEntity
8
OUTER_PROFILES
100
AcDbPolyline
90
36
70
1
43
0.0
10
0
20
0
10
14.171572875253531
20
14.171572875253506
10
15.585786437626838
20
15.302546230546135
10
28.556349186103986
20
33.645691981053787
10
28.556349186103994
20
34.776665336346113
10
27.425375830811657
20
34.776665336346184
10
9.0822300803040186
20
21.806102587868956
10
7.9512567250113042
20
20.391889025495527
10
-6.2203161502421001
20
6.2203161502421089
10
-6.2203161502421045
20
161.6761602729577
10
7.9512567250116595
20
147.50458739770397
10
9.0822300803040221
20
146.09037383533089
10
27.425375830811653
20
133.11981108685373
10
28.55634918610399
20
133.11981108685373
10
28.556349186104054
20
134.25078444214608
10
15.585786437626879
20
152.59393019265366
10
14.171572875254011
20
153.72490354794584
10
-4.4408920985006262e-15
20
167.89647642319983
10
155.45584412271558
20
167.89647642319983
10
141.28427124746207
20
153.72490354794633
10
139.87005768508877
20
152.59393019265372
10
126.8994949366116
20
134.25078444214608
10
126.8994949366116
20
133.11981108685373
10
128.03046829190396
20
133.11981108685367
10
146.37361404241156
20
146.09037383533087
10
147.50458739770426
20
147.50458739770431
10
161.6761602729577
20
161.67616027295776
10
161.6761602729577
20
6.2203161502421089
10
147.50458739770397
20
20.391889025495864
10
146.37361404241159
20
21.806102587868956
10
128.03046829190396
20
34.776665336346113
10
126.8994949366116
20
34.776665336346113
10
126.89949493661153
20
33.645691981053787
10
139.87005768508877
20
15.302546230546117
10
141.28427124746148
20
14.171572875254075
10
155.45584412271558
20
-1.7763568394002505e-14
0
CIRCLE
5
101
100
AcDbEntity
8
INTERIOR_PROFILES
100
AcDbCircle
10
-27.727922061357635
20
7.0857864376267798
30
0
40
2.5
210
0
220
0
230
-1
0
CIRCLE
5
102
100
AcDbEntity
8
INTERIOR_PROFILES
100
AcDbCircle
10
-0.86547028738456877
20
83.948238211599943
30
0
40
2.5000000000000004
210
0
220
0
230
-1
0
CIRCLE
5
103
100
AcDbEntity
8
INTERIOR_PROFILES
100
AcDbCircle
10
-154.59037383533081
20
133.94823821159991
30
0
40
2.5
210
0
220
0
230
-1
0
CIRCLE
5
104
100
AcDbEntity
8
INTERIOR_PROFILES
100
AcDbCircle
10
-127.72792206135769
20
160.81068998557305
30
0
40
2.5
210
0
220
0
230
-1
0
CIRCLE
5
105
100
AcDbEntity
8
INTERIOR_PROFILES
100
AcDbCircle
10
-0.86547028738458209
20
33.948238211599943
30
0
40
2.5000000000000004
210
0
220
0
230
-1
0
CIRCLE
5
106
100
AcDbEntity
8
INTERIOR_PROFILES
100
AcDbCircle
10
-0.86547028738455989
20
133.94823821159994
30
0
40
2.5000000000000004
210
0
220
0
230
-1
0
CIRCLE
5
107
100
AcDbEntity
8
INTERIOR_PROFILES
100
AcDbCircle
10
-77.727922061357646
20
7.0857864376267798
30
0
40
2.5
210
0
220
0
230
-1
0
CIRCLE
5
108
100
AcDbEntity
8
INTERIOR_PROFILES
100
AcDbCircle
10
-154.59037383533081
20
33.948238211599886
30
0
40
2.5
210
0
220
0
230
-1
0
CIRCLE
5
109
100
AcDbEntity
8
INTERIOR_PROFILES
100
AcDbCircle
10
-154.59037383533081
20
83.9482382115999
30
0
40
2.5
210
0
220
0
230
-1
0
CIRCLE
5
110
100
AcDbEntity
8
INTERIOR_PROFILES
100
AcDbCircle
10
-77.727922061357702
20
160.81068998557302
30
0
40
2.5
210
0
220
0
230
-1
0
CIRCLE
5
111
100
AcDbEntity
8
INTERIOR_PROFILES
100
AcDbCircle
10
-127.72792206135765
20
7.0857864376267798
30
0
40
2.5
210
0
220
0
230
-1
0
CIRCLE
5
112
100
AcDbEntity
8
INTERIOR_PROFILES
100
AcDbCircle
10
-27.727922061357692
20
160.81068998557302
30
0
40
2.5
210
0
220
0
230
-1
0
LINE
5
113
100
AcDbEntity
8
BEND
100
AcDbLine
10
140.57716446627518
20
153.15941687029982
30
-6.6542930798840783e-13
11
14.878679656440355
21
153.15941687029982
31
-6.6035112661332577e-13
0
LINE
5
114
100
AcDbEntity
8
BEND
100
AcDbLine
10
146.93910072005775
20
21.098995806682446
30
-5.2024711209368244e-13
11
146.93910072005775
21
146.79748061651736
31
-5.2024711209368244e-13
0
LINE
5
115
100
AcDbEntity
8
BEND
100
AcDbLine
10
127.46498161425777
20
133.11981108685367
30
-6.0591898152051171e-13
11
127.46498161425777
21
34.776665336346113
31
-6.0550264788627728e-13
0
LINE
5
116
100
AcDbEntity
8
BEND
100
AcDbLine
10
28.556349186104054
20
133.68529776449989
30
-6.0442110401367874e-13
11
126.8994949366116
21
133.68529776449989
31
-6.0520224663664806e-13
0
LINE
5
117
100
AcDbEntity
8
BEND
100
AcDbLine
10
8.5167434026578412
20
146.79748061651742
30
-5.1604202501762116e-13
11
8.5167434026578412
21
21.098995806682446
31
-5.1743109143724377e-13
0
LINE
5
118
100
AcDbEntity
8
BEND
100
AcDbLine
10
126.89949493661153
20
34.211178658699936
30
-6.0561858027088249e-13
11
28.556349186103986
21
34.211178658699936
31
-6.0136799069595956e-13
0
LINE
5
119
100
AcDbEntity
8
BEND
100
AcDbLine
10
27.990862508457823
20
34.776665336346184
30
-6.019002567147992e-13
11
27.99086250845782
21
133.11981108685373
31
-6.0148392308056477e-13
0
LINE
5
120
100
AcDbEntity
8
BEND
100
AcDbLine
10
14.878679656440376
20
14.737059552899971
30
-3.2367341911806481e-13
11
140.57716446627529
21
14.737059552899954
31
-3.3430786617163718e-13
0
LINE
5
121
100
AcDbEntity
8
BEND_EXTENT
100
AcDbLine
10
7.9512567250113042
20
20.391889025495527
30
-6.0206210775201839e-13
11
7.9512567250116595
21
147.50458739770397
31
-6.0206210775201839e-13
0
LINE
5
122
100
AcDbEntity
8
BEND_EXTENT
100
AcDbLine
10
9.0822300803040221
20
146.09037383533089
30
-5.4437620145845612e-13
11
9.0822300803040186
21
21.806102587868956
31
-6.0210779873896426e-13
0
LINE
5
123
100
AcDbEntity
8
BEND_EXTENT
100
AcDbLine
10
14.171572875254011
20
153.72490354794584
30
-6.0231340667315552e-13
11
141.28427124746207
21
153.72490354794633
31
-6.0744872185524942e-13
0
LINE
5
124
100
AcDbEntity
8
BEND_EXTENT
100
AcDbLine
10
139.87005768508877
20
152.59393019265372
30
-4.6972393299471797e-13
11
15.585786437626883
21
152.59393019265366
31
-6.0237054048016756e-13
0
LINE
5
125
100
AcDbEntity
8
BEND_EXTENT
100
AcDbLine
10
141.28427124746148
20
14.171572875254075
30
-6.0744872185524942e-13
11
14.171572875253524
21
14.171572875253506
31
-6.0231340667315552e-13
0
LINE
5
126
100
AcDbEntity
8
BEND_EXTENT
100
AcDbLine
10
15.585786437626838
20
15.302546230546135
30
-4.6470288542664815e-13
11
139.87005768508877
21
15.302546230546117
31
-6.0739158804823738e-13
0
LINE
5
127
100
AcDbEntity
8
BEND_EXTENT
100
AcDbLine
10
147.50458739770426
20
147.50458739770431
30
-6.0770002077638655e-13
11
147.50458739770397
21
20.391889025495864
31
-6.0770002077638655e-13
0
LINE
5
128
100
AcDbEntity
8
BEND_EXTENT
100
AcDbLine
10
146.37361404241159
20
21.806102587868956
30
-5.4992273250893265e-13
11
146.37361404241156
21
146.09037383533087
31
-6.0765432978944079e-13
0
LINE
5
129
100
AcDbEntity
8
BEND_EXTENT
100
AcDbLine
10
27.425375830811657
20
34.776665336346184
30
-5.9840796426937276e-13
11
27.425375830811653
21
133.11981108685373
31
-5.9840796426937276e-13
0
LINE
5
130
100
AcDbEntity
8
BEND_EXTENT
100
AcDbLine
10
128.03046829190396
20
133.11981108685367
30
-6.0247238006203103e-13
11
128.03046829190396
21
34.776665336346113
31
-6.0247238006203103e-13
0
LINE
5
131
100
AcDbEntity
8
BEND_EXTENT
100
AcDbLine
10
28.556349186104054
20
134.25078444214608
30
-5.9845365525631852e-13
11
126.8994949366116
21
134.25078444214608
31
-6.0242668907508517e-13
0
LINE
5
132
100
AcDbEntity
8
BEND_EXTENT
100
AcDbLine
10
126.89949493661153
20
33.645691981053787
30
-6.0242668907508517e-13
11
28.556349186103986
21
33.645691981053787
31
-5.9845365525631852e-13
0
LWPOLYLINE
5
133
100
AcDbEntity
8
BEND_EXTENT
100
AcDbPolyline
90
4
70
1
43
0.0
10
28.55634918610399
20
133.11981108685373
10
28.556349186103994
20
34.776665336346113
10
126.8994949366116
20
34.776665336346113
10
126.8994949366116
20
133.11981108685373
0
ENDSEC
0
SECTION
2
OBJECTS
0
DICTIONARY
5
C
100
AcDbDictionary
3
ACAD_GROUP
350
D
3
ACAD_MLINESTYLE
350
17
0
DICTIONARY
5
D
100
AcDbDictionary
0
DICTIONARY
5
1A
330
C
100
AcDbDictionary
0
DICTIONARY
5
17
100
AcDbDictionary
0
ENDSEC
0
EOF
