0
SECTION
2
HEADER
9
$INSUNITS
70
4
9
$ACADVER
1
AC1014
9
$HANDSEED
5
FFFF
0
ENDSEC
0
SECTION
2
TABLES
0
TABLE
2
VPORT
5
8
100
AcDbSymbolTable
0
ENDTAB
0
TABLE
2
LTYPE
5
5
100
AcDbSymbolTable
0
LTYPE
5
14
100
AcDbSymbolTableRecord
100
AcDbLinetypeTableRecord
2
BYBLOCK
70
0
0
LTYPE
5
15
100
AcDbSymbolTableRecord
100
AcDbLinetypeTableRecord
2
BYLAYER
70
0
0
ENDTAB
0
TABLE
2
LAYER
5
2
100
AcDbSymbolTable
70
2
0
LAYER
5
50
100
AcDbSymbolTableRecord
100
AcDbLayerTableRecord
2
0
70
0
6
CONTINUOUS
0
ENDTAB
0
TABLE
2
STYLE
5
3
100
AcDbSymbolTable
70
1
0
STYLE
5
11
100
AcDbSymbolTableRecord
100
AcDbTextStyleTableRecord
2
STANDARD
70
0
0
ENDTAB
0
TABLE
2
VIEW
5
6
100
AcDbSymbolTable
70
0
0
ENDTAB
0
TABLE
2
UCS
5
7
100
AcDbSymbolTable
70
0
0
ENDTAB
0
TABLE
2
APPID
5
9
100
AcDbSymbolTable
70
2
0
APPID
5
12
100
AcDbSymbolTableRecord
100
AcDbRegAppTableRecord
2
ACAD
70
0
0
ENDTAB
0
TABLE
2
DIMSTYLE
5
A
100
AcDbSymbolTable
70
1
0
ENDTAB
0
TABLE
2
BLOCK_RECORD
5
1
100
AcDbSymbolTable
70
1
0
BLOCK_RECORD
5
1F
100
AcDbSymbolTableRecord
100
AcDbBlockTableRecord
2
*MODEL_SPACE
0
BLOCK_RECORD
5
1B
100
AcDbSymbolTableRecord
100
AcDbBlockTableRecord
2
*PAPER_SPACE
0
ENDTAB
0
ENDSEC
0
SECTION
2
BLOCKS
0
BLOCK
5
20
100
AcDbEntity
100
AcDbBlockBegin
2
*MODEL_SPACE
0
ENDBLK
5
21
100
AcDbEntity
100
AcDbBlockEnd
0
BLOCK
5
1C
100
AcDbEntity
100
AcDbBlockBegin
2
*PAPER_SPACE
0
ENDBLK
5
1D
100
AcDbEntity
100
AcDbBlockEnd
0
ENDSEC
0
SECTION
2
ENTITIES
0
LWPOLYLINE
5
100
100
AcDbEntity
8
OUTER_PROFILES
100
AcDbPolyline
90
32
70
1
43
0.0
10
-100.0620004047118
20
184.50967985879623
10
-85.062000404711839
20
199.50967985879626
10
-2.5381069835424164
20
199.50967985879623
10
-2.5381069835424084
20
197.52389342116928
10
1.9857864376269063
20
197.5238934211693
10
1.9857864376269241
20
202.04778684233858
10
0
20
202.04778684233858
10
0
20
253.04778684233861
10
195.97157287525377
20
253.04778684233861
10
195.97157287525377
20
202.04778684233858
10
193.98578643762687
20
202.04778684233858
10
193.98578643762687
20
197.5238934211693
10
198.5096798587962
20
197.52389342116928
10
198.5096798587962
20
199.50967985879623
10
281.03357327996565
20
199.50967985879623
10
296.03357327996559
20
184.50967985879623
10
296.03357327996559
20
68.538106983542377
10
281.03357327996565
20
53.538106983542342
10
198.5096798587962
20
53.538106983542377
10
198.5096798587962
20
55.523893421169312
10
193.98578643762687
20
55.523893421169291
10
193.98578643762687
20
51.000000000000007
10
195.97157287525377
20
51.000000000000007
10
195.97157287525377
20
0
10
0
20
0
10
0
20
51.000000000000007
10
1.9857864376269241
20
51.000000000000007
10
1.9857864376269063
20
55.523893421169291
10
-2.5381069835424084
20
55.523893421169312
10
-2.5381069835424164
20
53.538106983542377
10
-85.062000404711839
20
53.538106983542377
10
-100.0620004047118
20
68.538106983542377
0
CIRCLE
5
101
100
AcDbEntity
8
INTERIOR_PROFILES
100
AcDbCircle
10
-57.985786437626885
20
116.5238934211693
30
0
40
3.0000000000000071
210
0
220
0
230
-1
0
CIRCLE
5
102
100
AcDbEntity
8
INTERIOR_PROFILES
100
AcDbCircle
10
-77.985786437626885
20
66.523893421169305
30
0
40
2.9999999999999982
210
0
220
0
230
-1
0
CIRCLE
5
103
100
AcDbEntity
8
INTERIOR_PROFILES
100
AcDbCircle
10
-37.985786437626885
20
91.523893421169305
30
0
40
3.0000000000000071
210
0
220
0
230
-1
0
CIRCLE
5
104
100
AcDbEntity
8
INTERIOR_PROFILES
100
AcDbCircle
10
-67.985786437626885
20
108.19056008783598
30
0
40
3.0000000000000071
210
0
220
0
230
-1
0
CIRCLE
5
105
100
AcDbEntity
8
INTERIOR_PROFILES
100
AcDbCircle
10
-57.985786437626885
20
108.19056008783598
30
0
40
3.0000000000000071
210
0
220
0
230
-1
0
CIRCLE
5
106
100
AcDbEntity
8
INTERIOR_PROFILES
100
AcDbCircle
10
-57.985786437626885
20
66.523893421169305
30
0
40
2.9999999999999982
210
0
220
0
230
-1
0
CIRCLE
5
107
100
AcDbEntity
8
INTERIOR_PROFILES
100
AcDbCircle
10
-27.985786437626885
20
74.857226754502634
30
0
40
2.9999999999999982
210
0
220
0
230
-1
0
CIRCLE
5
108
100
AcDbEntity
8
INTERIOR_PROFILES
100
AcDbCircle
10
-27.985786437626885
20
91.523893421169305
30
0
40
3.0000000000000071
210
0
220
0
230
-1
0
CIRCLE
5
109
100
AcDbEntity
8
INTERIOR_PROFILES
100
AcDbCircle
10
-77.985786437626885
20
83.190560087835962
30
0
40
2.9999999999999893
210
0
220
0
230
-1
0
CIRCLE
5
110
100
AcDbEntity
8
INTERIOR_PROFILES
100
AcDbCircle
10
-27.985786437626885
20
83.190560087835962
30
0
40
2.9999999999999893
210
0
220
0
230
-1
0
CIRCLE
5
111
100
AcDbEntity
8
INTERIOR_PROFILES
100
AcDbCircle
10
-47.985786437626885
20
74.857226754502634
30
0
40
2.9999999999999982
210
0
220
0
230
-1
0
CIRCLE
5
112
100
AcDbEntity
8
INTERIOR_PROFILES
100
AcDbCircle
10
-47.985786437626885
20
108.19056008783598
30
0
40
3.0000000000000071
210
0
220
0
230
-1
0
CIRCLE
5
113
100
AcDbEntity
8
INTERIOR_PROFILES
100
AcDbCircle
10
-67.985786437626885
20
91.523893421169305
30
0
40
3.0000000000000071
210
0
220
0
230
-1
0
CIRCLE
5
114
100
AcDbEntity
8
INTERIOR_PROFILES
100
AcDbCircle
10
-67.985786437626885
20
66.523893421169305
30
0
40
2.9999999999999982
210
0
220
0
230
-1
0
CIRCLE
5
115
100
AcDbEntity
8
INTERIOR_PROFILES
100
AcDbCircle
10
-77.985786437626885
20
91.523893421169305
30
0
40
3.0000000000000071
210
0
220
0
230
-1
0
CIRCLE
5
116
100
AcDbEntity
8
INTERIOR_PROFILES
100
AcDbCircle
10
-47.985786437626885
20
99.857226754502619
30
0
40
3.0000000000000071
210
0
220
0
230
-1
0
CIRCLE
5
117
100
AcDbEntity
8
INTERIOR_PROFILES
100
AcDbCircle
10
-77.985786437626885
20
116.5238934211693
30
0
40
3.0000000000000071
210
0
220
0
230
-1
0
CIRCLE
5
118
100
AcDbEntity
8
INTERIOR_PROFILES
100
AcDbCircle
10
-57.985786437626885
20
74.857226754502634
30
0
40
2.9999999999999982
210
0
220
0
230
-1
0
CIRCLE
5
119
100
AcDbEntity
8
INTERIOR_PROFILES
100
AcDbCircle
10
-47.985786437626885
20
91.523893421169305
30
0
40
3.0000000000000071
210
0
220
0
230
-1
0
CIRCLE
5
120
100
AcDbEntity
8
INTERIOR_PROFILES
100
AcDbCircle
10
-37.985786437626885
20
83.190560087835962
30
0
40
2.9999999999999893
210
0
220
0
230
-1
0
CIRCLE
5
121
100
AcDbEntity
8
INTERIOR_PROFILES
100
AcDbCircle
10
-37.985786437626885
20
116.5238934211693
30
0
40
3.0000000000000071
210
0
220
0
230
-1
0
CIRCLE
5
122
100
AcDbEntity
8
INTERIOR_PROFILES
100
AcDbCircle
10
-27.985786437626885
20
108.19056008783598
30
0
40
3.0000000000000071
210
0
220
0
230
-1
0
CIRCLE
5
123
100
AcDbEntity
8
INTERIOR_PROFILES
100
AcDbCircle
10
-67.985786437626885
20
99.857226754502619
30
0
40
3.0000000000000071
210
0
220
0
230
-1
0
CIRCLE
5
124
100
AcDbEntity
8
INTERIOR_PROFILES
100
AcDbCircle
10
-67.985786437626885
20
74.857226754502634
30
0
40
2.9999999999999982
210
0
220
0
230
-1
0
CIRCLE
5
125
100
AcDbEntity
8
INTERIOR_PROFILES
100
AcDbCircle
10
-37.985786437626885
20
66.523893421169305
30
0
40
2.9999999999999982
210
0
220
0
230
-1
0
CIRCLE
5
126
100
AcDbEntity
8
INTERIOR_PROFILES
100
AcDbCircle
10
-57.985786437626885
20
83.190560087835962
30
0
40
2.9999999999999893
210
0
220
0
230
-1
0
CIRCLE
5
127
100
AcDbEntity
8
INTERIOR_PROFILES
100
AcDbCircle
10
-47.985786437626885
20
66.523893421169305
30
0
40
2.9999999999999982
210
0
220
0
230
-1
0
CIRCLE
5
128
100
AcDbEntity
8
INTERIOR_PROFILES
100
AcDbCircle
10
-57.985786437626885
20
99.857226754502619
30
0
40
3.0000000000000071
210
0
220
0
230
-1
0
CIRCLE
5
129
100
AcDbEntity
8
INTERIOR_PROFILES
100
AcDbCircle
10
-27.985786437626885
20
116.5238934211693
30
0
40
3.0000000000000071
210
0
220
0
230
-1
0
CIRCLE
5
130
100
AcDbEntity
8
INTERIOR_PROFILES
100
AcDbCircle
10
-37.985786437626885
20
99.857226754502619
30
0
40
3.0000000000000071
210
0
220
0
230
-1
0
CIRCLE
5
131
100
AcDbEntity
8
INTERIOR_PROFILES
100
AcDbCircle
10
-27.985786437626885
20
66.523893421169305
30
0
40
2.9999999999999982
210
0
220
0
230
-1
0
CIRCLE
5
132
100
AcDbEntity
8
INTERIOR_PROFILES
100
AcDbCircle
10
83.062000404711796
20
182.50967985879626
30
0
40
7.5
210
0
220
0
230
-1
0
CIRCLE
5
133
100
AcDbEntity
8
INTERIOR_PROFILES
100
AcDbCircle
10
-67.985786437626885
20
83.190560087835962
30
0
40
2.9999999999999893
210
0
220
0
230
-1
0
CIRCLE
5
134
100
AcDbEntity
8
INTERIOR_PROFILES
100
AcDbCircle
10
-279.03357327996559
20
182.50967985879623
30
0
40
7.5
210
0
220
0
230
-1
0
CIRCLE
5
135
100
AcDbEntity
8
INTERIOR_PROFILES
100
AcDbCircle
10
-37.985786437626885
20
108.19056008783598
30
0
40
3.0000000000000071
210
0
220
0
230
-1
0
CIRCLE
5
136
100
AcDbEntity
8
INTERIOR_PROFILES
100
AcDbCircle
10
-47.985786437626885
20
83.190560087835962
30
0
40
2.9999999999999893
210
0
220
0
230
-1
0
CIRCLE
5
137
100
AcDbEntity
8
INTERIOR_PROFILES
100
AcDbCircle
10
-77.985786437626885
20
74.857226754502634
30
0
40
2.9999999999999982
210
0
220
0
230
-1
0
CIRCLE
5
138
100
AcDbEntity
8
INTERIOR_PROFILES
100
AcDbCircle
10
83.062000404711796
20
70.538106983542377
30
0
40
7.5
210
0
220
0
230
-1
0
CIRCLE
5
139
100
AcDbEntity
8
INTERIOR_PROFILES
100
AcDbCircle
10
-77.985786437626885
20
108.19056008783598
30
0
40
3.0000000000000071
210
0
220
0
230
-1
0
CIRCLE
5
140
100
AcDbEntity
8
INTERIOR_PROFILES
100
AcDbCircle
10
-77.985786437626885
20
99.857226754502619
30
0
40
3.0000000000000071
210
0
220
0
230
-1
0
CIRCLE
5
141
100
AcDbEntity
8
INTERIOR_PROFILES
100
AcDbCircle
10
-27.985786437626885
20
99.857226754502619
30
0
40
3.0000000000000071
210
0
220
0
230
-1
0
CIRCLE
5
142
100
AcDbEntity
8
INTERIOR_PROFILES
100
AcDbCircle
10
-57.985786437626885
20
91.523893421169305
30
0
40
3.0000000000000071
210
0
220
0
230
-1
0
CIRCLE
5
143
100
AcDbEntity
8
INTERIOR_PROFILES
100
AcDbCircle
10
-37.985786437626885
20
74.857226754502634
30
0
40
2.9999999999999982
210
0
220
0
230
-1
0
CIRCLE
5
144
100
AcDbEntity
8
INTERIOR_PROFILES
100
AcDbCircle
10
-47.985786437626885
20
116.5238934211693
30
0
40
3.0000000000000071
210
0
220
0
230
-1
0
CIRCLE
5
145
100
AcDbEntity
8
INTERIOR_PROFILES
100
AcDbCircle
10
-67.985786437626885
20
116.5238934211693
30
0
40
3.0000000000000071
210
0
220
0
230
-1
0
CIRCLE
5
146
100
AcDbEntity
8
INTERIOR_PROFILES
100
AcDbCircle
10
-279.03357327996559
20
70.538106983542349
30
0
40
7.4999999999999911
210
0
220
0
230
-1
0
LINE
5
147
100
AcDbEntity
8
BEND
100
AcDbLine
10
-51.800053694127108
20
53.538106983542377
30
2.8907211913120375e-13
11
-51.800053694127108
21
199.50967985879626
31
2.8737434331329872e-13
0
LINE
5
148
100
AcDbEntity
8
BEND
100
AcDbLine
10
196.24773314821152
20
55.523893421169312
30
3.8324112913340626e-13
11
196.24773314821152
21
197.52389342116928
31
3.8324112913340626e-13
0
LINE
5
149
100
AcDbEntity
8
BEND
100
AcDbLine
10
1.9857864376269241
20
53.261946710584631
30
3.832411291334059e-13
11
193.9857864376269
21
53.261946710584631
31
3.8324112913340585e-13
0
LINE
5
150
100
AcDbEntity
8
BEND
100
AcDbLine
10
247.77162656938091
20
199.50967985879623
30
2.8907211913120375e-13
11
247.77162656938091
21
53.538106983542342
31
2.8737434331329867e-13
0
LINE
5
151
100
AcDbEntity
8
BEND
100
AcDbLine
10
-0.27616027295771561
20
197.52389342116928
30
3.8324112913340621e-13
11
-0.27616027295771561
21
55.523893421169319
31
3.8324112913340621e-13
0
LINE
5
152
100
AcDbEntity
8
BEND
100
AcDbLine
10
193.98578643762687
20
199.78584013175396
30
3.8324112913340585e-13
11
1.9857864376269063
21
199.78584013175396
31
3.8324112913340575e-13
0
LINE
5
153
100
AcDbEntity
8
BEND_EXTENT
100
AcDbLine
10
250.03357327996565
20
199.50967985879623
30
2.9309887850104133e-13
11
250.03357327996565
21
53.538106983542342
31
2.9309887850104133e-13
0
LINE
5
154
100
AcDbEntity
8
BEND_EXTENT
100
AcDbLine
10
245.5096798587962
20
53.538106983542377
30
3.1974423109204508e-13
11
245.5096798587962
21
199.50967985879623
31
3.1974423109204508e-13
0
LINE
5
155
100
AcDbEntity
8
BEND_EXTENT
100
AcDbLine
10
-54.062000404711824
20
53.538106983542377
30
2.9309887850104133e-13
11
-54.062000404711824
21
199.50967985879626
31
2.9309887850104133e-13
0
LINE
5
156
100
AcDbEntity
8
BEND_EXTENT
100
AcDbLine
10
-49.538106983542392
20
199.50967985879623
30
3.1974423109204508e-13
11
-49.538106983542392
21
53.538106983542377
31
3.1974423109204508e-13
0
LINE
5
157
100
AcDbEntity
8
BEND_EXTENT
100
AcDbLine
10
198.5096798587962
20
197.52389342116928
30
3.5527136788005009e-13
11
198.5096798587962
21
55.523893421169319
31
3.5527136788005009e-13
0
LINE
5
158
100
AcDbEntity
8
BEND_EXTENT
100
AcDbLine
10
-2.5381069835424084
20
55.523893421169312
30
3.5527136788005009e-13
11
-2.5381069835424084
21
197.52389342116928
31
3.5527136788005009e-13
0
LINE
5
159
100
AcDbEntity
8
BEND_EXTENT
100
AcDbLine
10
193.98578643762687
20
51.000000000000007
30
3.730349362740526e-13
11
1.9857864376269063
21
51.000000000000007
31
3.730349362740526e-13
0
LWPOLYLINE
5
160
100
AcDbEntity
8
BEND_EXTENT
100
AcDbPolyline
90
4
70
1
43
0.0
10
1.9857864376269063
20
55.523893421169291
10
193.98578643762687
20
55.523893421169291
10
193.98578643762687
20
197.5238934211693
10
1.9857864376269063
20
197.5238934211693
0
LINE
5
161
100
AcDbEntity
8
BEND_EXTENT
100
AcDbLine
10
1.9857864376269241
20
202.04778684233858
30
3.730349362740526e-13
11
193.9857864376269
21
202.04778684233858
31
3.730349362740526e-13
0
ENDSEC
0
SECTION
2
OBJECTS
0
DICTIONARY
5
C
100
AcDbDictionary
3
ACAD_GROUP
350
D
3
ACAD_MLINESTYLE
350
17
0
DICTIONARY
5
D
100
AcDbDictionary
0
DICTIONARY
5
1A
330
C
100
AcDbDictionary
0
DICTIONARY
5
17
100
AcDbDictionary
0
ENDSEC
0
EOF
